<svg width="20" height="20" fill="none" xmlns="http://www.w3.org/2000/svg"><circle cx="10" cy="10" r="10" fill="#fff"/><path d="M13.29 6H7.21C6.523 6 6 6.523 6 7.21v6.08c0 .687.523 1.21 1.21 1.21h6.08c.687 0 1.21-.523 1.21-1.21V7.21c0-.687-.523-1.21-1.21-1.21zm-3.04 6.8c1.406 0 2.55-1.111 2.55-2.452 0-.229-.033-.49-.098-.686h.72v3.465a.329.329 0 01-.328.327H7.406a.328.328 0 01-.327-.327V9.629h.752a2.489 2.489 0 00-.098.687C7.7 11.688 8.844 12.8 10.25 12.8zm0-.98c-.915 0-1.635-.72-1.635-1.603 0-.882.72-1.601 1.635-1.601s1.635.719 1.635 1.601c0 .916-.72 1.602-1.635 1.602zm3.139-3.499c0 .196-.164.36-.36.36h-.915a.363.363 0 01-.36-.36V7.44c0-.197.163-.36.36-.36h.915c.196 0 .36.163.36.36v.882z" fill="#2B7AF1"/></svg>