<svg width="30" height="32" fill="none" xmlns="http://www.w3.org/2000/svg"><ellipse cx="14.634" cy="29.165" rx="14.634" ry="2.302" fill="url(#paint0_radial_1:1015)" fill-opacity=".5"/><path d="M15.366 1.919c-2.667.003-5.224 1.116-7.11 3.094-1.887 1.979-2.948 4.66-2.95 7.459a10.785 10.785 0 002.026 6.331s.274.38.32.434l7.714 9.544 7.719-9.549c.04-.05.315-.429.315-.429l.001-.003a10.78 10.78 0 002.026-6.328c-.003-2.798-1.064-5.48-2.95-7.459-1.886-1.978-4.444-3.091-7.11-3.094zm3.293 15.35l-3.293-2.198-3.293 2.197.55-3.908-2.745-2.641 3.842-.486 1.646-3.518 1.749 3.518 3.739.486-2.744 2.641.549 3.909z" fill="#F73E3E"/><defs><radialGradient id="paint0_radial_1:1015" cx="0" cy="0" r="1" gradientUnits="userSpaceOnUse" gradientTransform="matrix(0 2.30246 -14.6341 0 14.634 29.165)"><stop stop-color="#111"/><stop offset="1" stop-color="#111" stop-opacity="0"/></radialGradient></defs></svg>