<svg width="20" height="20" fill="none" xmlns="http://www.w3.org/2000/svg"><circle cx="10" cy="10" r="10" fill="#fff"/><path d="M4.675 10.187l2.3.857.896 2.884c.039.195.272.234.428.117l1.286-1.052c.117-.117.312-.117.468 0l2.299 1.675c.156.117.39.04.428-.155l1.715-8.184c.039-.194-.156-.39-.35-.311L4.674 9.68c-.233.078-.233.428 0 .506zm3.079.429l4.52-2.767c.078-.039.156.078.078.117L8.65 11.434c-.117.117-.234.273-.234.468l-.117.935c0 .117-.195.156-.234 0l-.467-1.715c-.117-.194-.04-.428.156-.506z" fill="#2B7AF1"/></svg>