<svg width="20" height="20" fill="none" xmlns="http://www.w3.org/2000/svg"><circle cx="10" cy="10" r="10" fill="#fff"/><path d="M14.903 12.557c0-.041-.042-.041-.042-.082-.166-.333-.54-.748-1.037-1.204-.25-.208-.374-.374-.457-.457-.125-.166-.124-.29-.083-.457.042-.124.208-.332.498-.705.166-.208.25-.332.374-.457.622-.83.913-1.37.83-1.619l-.042-.041c-.041-.042-.083-.083-.166-.083-.083-.042-.207-.042-.332 0h-1.868l-.041.041c-.042.042-.042.042-.042.083-.166.457-.373.83-.58 1.245a7.29 7.29 0 01-.374.582c-.125.166-.208.29-.291.373-.083.083-.166.125-.208.208-.041.041-.124.083-.124.041-.042 0-.083 0-.083-.041l-.125-.125c-.041-.041-.041-.124-.083-.207V7.576c0-.041-.041-.124-.041-.166l-.125-.124c-.041-.042-.124-.042-.166-.083a3.722 3.722 0 00-.747-.083c-.664 0-1.12.041-1.287.124-.083.042-.166.083-.207.166-.083.083-.083.125-.042.125.208.041.374.124.457.249l.041.083c.042.041.042.124.083.249.042.124.042.249.042.415v.664c0 .208-.042.332-.042.457 0 .124-.041.207-.083.249-.041.083-.041.124-.083.124 0 0 0 .042-.041.042-.042 0-.083.041-.166.041a.315.315 0 01-.166-.083.5.5 0 01-.208-.207 1.449 1.449 0 01-.249-.374c-.083-.166-.208-.332-.29-.581l-.084-.166c-.041-.083-.124-.25-.207-.457-.083-.207-.166-.373-.25-.58-.04-.084-.082-.125-.124-.167h-.041s-.042-.041-.083-.041c-.042 0-.083-.042-.125-.042H4.9c-.166 0-.25.042-.29.083l-.042.042v.083c0 .041 0 .083.041.166.208.498.457.996.706 1.494.249.457.498.872.664 1.162.208.291.374.582.581.83.208.25.332.416.374.499l.166.166.124.124c.083.083.208.208.374.333.166.124.374.248.581.373.208.125.457.208.706.29.29.084.54.125.789.084h.622a.377.377 0 00.29-.125l.042-.041c0-.042.042-.042.042-.083v-.166c0-.167 0-.291.041-.416.042-.124.042-.207.083-.29a.566.566 0 01.125-.166l.083-.083h.041c.084-.042.208 0 .291.083.125.083.25.207.332.332.083.124.208.249.374.415.166.166.29.29.373.332l.125.083c.083.042.166.083.29.125a.811.811 0 00.291.041l1.411-.041a.78.78 0 00.332-.083c.083-.042.125-.083.125-.166v-.166c-.083-.084-.083-.125-.083-.167z" fill="#2B7AF1"/></svg>